<?xml version="1.0" encoding="iso-8859-1"?>
<!-- Generator: Adobe Illustrator 19.0.0, SVG Export Plug-In . SVG Version: 6.00 Build 0)  -->
<svg version="1.1" id="Layer_1" xmlns="http://www.w3.org/2000/svg" xmlns:xlink="http://www.w3.org/1999/xlink" x="0px" y="0px"
	 viewBox="0 0 496.2 496.2" style="enable-background:new 0 0 496.2 496.2;" xml:space="preserve">
<path style="fill:#25B7D3;" d="M496.2,248.1C496.2,111.1,385.1,0,248.1,0S0,111.1,0,248.1s111.1,248.1,248.1,248.1
	S496.2,385.1,496.2,248.1z"/>
<path style="fill:#FBBF96;" d="M308.7,221.8l-29.9-20.5c0,0-3.8-4.6-18.6-5.7c-23.3-1.7-69.6-12.4-69.6-12.4
	c-28.5,8.5-26,33.8-26,33.8l74.6,14.3c0,0,34.4-2.7,42.9,2.7c20.8,13,31.1-8.4,31.1-8.4L308.7,221.8z"/>
<g>
	<path style="fill:#FDD6B2;" d="M293.2,211.1l19.9,12.8c0,0-4.5,4.2-8.3,3.7C300.6,227,291.7,217.2,293.2,211.1z"/>
	<path style="fill:#FDD6B2;" d="M272.3,207c-0.6-0.1-1-0.8-0.9-1.4l1.3-5.8c0.2-0.6,0.8-1,1.4-0.9l0,0c0.6,0.1,1,0.8,0.9,1.4
		l-1.3,5.8C273.6,206.8,272.9,207.2,272.3,207L272.3,207z"/>
	<path style="fill:#FDD6B2;" d="M268.6,203.2c-0.6-0.2-1-0.8-0.9-1.4l0.6-3.1c0.1-0.6,0.8-1,1.4-0.9l0,0c0.6,0.2,1,0.8,0.9,1.4
		l-0.6,3.1C269.9,202.9,269.2,203.3,268.6,203.2L268.6,203.2z"/>
</g>
<rect x="182.743" y="194.244" transform="matrix(0.4872 -0.8733 0.8733 0.4872 -57.2739 410.5533)" style="fill:#B9EFBD;" width="276.402" height="119.601"/>
<g>
	<path style="fill:#71AD71;" d="M208.4,344.2L338.5,111l94.9,53L303.3,397.2L208.4,344.2z M302,393.7l127.8-229.1l-90-50.2
		L212,343.5L302,393.7z"/>
	<path style="fill:#71AD71;" d="M298,295.3c22.7,12.7,51.5,4.5,64.2-18.2c12.7-22.8,4.5-51.5-18.2-64.2
		c-22.8-12.7-51.5-4.5-64.2,18.2C267,253.8,275.2,282.6,298,295.3z"/>
</g>
<path style="fill:#B9EFBD;" d="M287.1,233.8l6.8,3.8c2-2.6,4-4.5,6.1-5.6s4.7-1.7,7.8-1.6c3.1,0.1,6.5,1,10.2,2.7l-1.9,6.3
	c-3.8-1.6-6.9-2.3-9.3-2.2c-3.3,0.2-5.7,1.4-7.2,3.5l21.5,12c1.8-2,4.2-3.8,7.2-5.3c2.2-1.1,4.6-1.6,7.3-1.4
	c2.7,0.2,5.4,1.1,8.1,2.6c4.8,2.7,7.9,6.3,9.3,10.8c0.9,3,0.6,6.6-1,10.5l3.2,1.8l-1.9,3.3l-3.2-1.8c-2.2,3-4.8,5-7.8,5.8
	c-3.8,1.1-8.1,0.7-12.7-1.2l2.2-6.4c2.9,1.2,5.3,1.6,7.3,1.3c2-0.3,3.7-1.2,5.2-2.8L324.8,259c-2.4,2.4-4.1,3.9-5.1,4.5
	c-1.9,1.2-3.8,2-5.8,2.4c-1.9,0.3-4,0.3-6.1-0.1c-2.2-0.4-4.3-1.2-6.4-2.4c-4.7-2.6-8-6.1-9.7-10.3c-1.7-4.2-1.6-8.4,0.4-12.4
	l-6.8-3.8L287.1,233.8z M346.3,266.9c0.8-2.4,0.7-4.7-0.3-6.9c-1-2.2-2.7-4-5-5.3s-4.5-1.8-6.7-1.6c-2.2,0.2-4.4,1.3-6.8,3.4
	L346.3,266.9z M297.7,244.1c-0.9,2.3-0.8,4.8,0.4,7.3c1.2,2.5,3.2,4.6,6.1,6.2c2.5,1.4,4.7,2,6.8,1.8c2-0.2,4.5-1.5,7.4-3.8
	L297.7,244.1z"/>
<g>
	<path style="fill:#FBBF96;" d="M186,362c-8.7-5.4-32.1-29-26.7-37.7l0,0c5.4-8.7,16.8-11.3,25.5-6l67.1,41
		c8.7,5.4,13,13.7,7.6,22.4l0,0c-5.4,8.7-12.3,8.8-24,3.7L186,362z"/>
	<path style="fill:#FBBF96;" d="M265,246.2l-16.7-14.1l3.6-28.1l-88.8-30.4l-84.5,90.1c0,0,22.7,35.7,45.5,56.8
		c22.8,21.1,77.4,50.1,77.4,50.1l22.6-22.8l31.2-37.3L265,246.2z"/>
	<path style="fill:#FBBF96;" d="M248.9,276.3c-7.4-5.3-31.4-20.6-26.1-28l-4.9-24.4c5.3-7.4,57.8,28.9,62,31.9l95.2,65
		c10.7,7.7,12.4,18,7.1,25.5l0,0c-5.3,7.4-17.1,10.2-24.5,4.9L248.9,276.3z"/>
</g>
<g>
	<path style="fill:#FDD6B2;" d="M357.9,342.5l6.7,4.7c4.7,3.4,11.5,2,15.1-3.1s2.7-11.9-2-15.2l-6.6-4.7c0,0-3.5,1.4-7.8,7.6
		C358,339.4,358.5,340.1,357.9,342.5z"/>
	<path style="fill:#FDD6B2;" d="M307.1,308c-0.5-0.4-0.7-1.1-0.3-1.7l12.1-17c0.4-0.5,1.1-0.7,1.7-0.3l0,0c0.5,0.4,0.7,1.1,0.3,1.7
		l-12.1,17C308.4,308.3,307.6,308.4,307.1,308L307.1,308z"/>
	<path style="fill:#FDD6B2;" d="M305.4,300.2c-0.5-0.3-0.6-1-0.2-1.5l6-8.4c0.3-0.5,1-0.6,1.5-0.3l0,0c0.5,0.4,0.6,1,0.2,1.5l-6,8.4
		C306.6,300.4,305.9,300.5,305.4,300.2L305.4,300.2z"/>
</g>
<path style="fill:#FBBF96;" d="M201.4,370.7l89.3,50.1c5.9,3.1,14.9,2,19.1-4.8l0,0c4.2-6.8,1.6-15.9-5.7-20.4l-101.2-61.2
	c-7.3-4.5-16.6-2.7-20.8,4.1l0,0c-4.2,6.8-1.7,18.6,6.4,22.1L201.4,370.7z"/>
<path style="fill:#EDAC80;" d="M211.6,339.3l48.6,30.1c5.6,3.3,53.4,32.6,49.2,30l-43-29l-69-41C198.5,330.9,210,338.2,211.6,339.3z
	"/>
<g>
	<path style="fill:#FDD6B2;" d="M288,414.4l6.1,3.7c4.3,2.6,10.1,1,12.9-3.6s1.7-10.5-2.6-13.1l-6-3.7c0,0-2.9,1.5-6.3,7
		C287.8,411.7,288.3,412.2,288,414.4z"/>
	<path style="fill:#FDD6B2;" d="M244.1,389.6c-0.5-0.3-0.6-0.9-0.3-1.4l9.7-15.3c0.3-0.5,1-0.6,1.4-0.3l0,0c0.5,0.3,0.6,1,0.3,1.4
		l-9.7,15.3C245.2,389.7,244.6,389.9,244.1,389.6L244.1,389.6z"/>
	<path style="fill:#FDD6B2;" d="M242.3,382.8c-0.4-0.3-0.6-0.8-0.3-1.3l4.8-7.5c0.3-0.4,0.8-0.6,1.3-0.3l0,0
		c0.4,0.3,0.6,0.8,0.3,1.3l-4.8,7.6C243.3,383,242.7,383.1,242.3,382.8L242.3,382.8z"/>
</g>
<path style="fill:#FBBF96;" d="M231.8,309.6c-9.8-4.8-12.3-19.4-6.8-27.6l0,0c5.4-8.2,17-10,25.8-4.1L372.6,358
	c8.8,5.9,11.5,17.2,6,25.4l0,0c-5.4,8.1-16.6,9.1-23.7,5l-123.6-79.2"/>
<path style="fill:#EDAC80;" d="M245.5,275.7l73,48.4c6.7,4.4,48.1,29.8,48.1,29.8l-120.5-79.5L245.5,275.7z"/>
<g>
	<path style="fill:#FDD6B2;" d="M351.8,380.4l7.3,4.8c5.2,3.4,12.4,1.7,16.1-3.8s2.5-12.8-2.6-16.3l-7.3-4.8c0,0-3.7,1.7-8.1,8.4
		C351.7,377,352.3,377.7,351.8,380.4z"/>
	<path style="fill:#FDD6B2;" d="M298.9,347.7c-0.6-0.4-0.7-1.2-0.3-1.8l12.7-18.4c0.4-0.6,1.2-0.7,1.8-0.3l0,0
		c0.6,0.4,0.7,1.2,0.3,1.8l-12.7,18.4C300.3,348,299.5,348.2,298.9,347.7L298.9,347.7z"/>
	<path style="fill:#FDD6B2;" d="M297,339.4c-0.5-0.4-0.6-1.1-0.3-1.6l6.3-9.1c0.4-0.5,1.1-0.6,1.6-0.3l0,0c0.5,0.4,0.6,1.1,0.3,1.6
		l-6.3,9.1C298.2,339.6,297.5,339.7,297,339.4L297,339.4z"/>
</g>
<path style="fill:#FBBF96;" d="M212.7,335.4c-9.2-4.7-11.4-18.7-6.1-26.4l0,0c5.3-7.7,16.3-9.3,24.6-3.5L346,383.6
	c8.3,5.7,10.7,16.6,5.4,24.3l0,0c-5.3,7.7-15.9,8.5-22.7,4.4l-116.5-77.2"/>
<path style="fill:#EDAC80;" d="M240,312l54.6,38.4c6.4,4.2,50,32,45.2,28.8l-115.9-79.6C225.2,301.3,238.2,310.6,240,312z"/>
<g>
	<path style="fill:#FDD6B2;" d="M325.9,404.7l6.9,4.7c4.9,3.4,11.7,1.8,15.4-3.4c3.6-5.2,2.6-12.2-2.3-15.5l-6.9-4.7
		c0,0-3.5,1.5-7.8,7.8C325.9,401.5,326.4,402.2,325.9,404.7z"/>
	<path style="fill:#FDD6B2;" d="M276,372.8c-0.6-0.4-0.7-1.2-0.3-1.7l12.4-17.3c0.4-0.6,1.2-0.7,1.7-0.3l0,0
		c0.6,0.4,0.7,1.2,0.3,1.7l-12.4,17.3C277.3,373.1,276.6,373.2,276,372.8L276,372.8z"/>
	<path style="fill:#FDD6B2;" d="M274.3,364.8c-0.5-0.3-0.6-1-0.2-1.5l6.1-8.6c0.3-0.5,1-0.6,1.5-0.3l0,0c0.5,0.4,0.6,1,0.3,1.5
		l-6.1,8.6C275.5,365.1,274.8,365.2,274.3,364.8L274.3,364.8z"/>
</g>
<path style="fill:#EBF3F6;" d="M101,291.5l-81.7-63.6c-7.6-5.9-6.4-20.1,2.6-31.7l56.7-72.8c9-11.6,22.5-16.2,30.1-10.3l81.7,63.6
	C197.9,182.7,108.6,297.4,101,291.5z"/>
<path style="fill:#444545;" d="M182.3,164.3L73.1,72.4C34.2,111.1,8.2,162.6,1.7,220.1l82.9,69.7
	C92.9,296.2,190.6,170.7,182.3,164.3z"/>
<g>
</g>
<g>
</g>
<g>
</g>
<g>
</g>
<g>
</g>
<g>
</g>
<g>
</g>
<g>
</g>
<g>
</g>
<g>
</g>
<g>
</g>
<g>
</g>
<g>
</g>
<g>
</g>
<g>
</g>
</svg>
