<?xml version="1.0" encoding="iso-8859-1"?>
<!-- Generator: Adobe Illustrator 19.0.0, SVG Export Plug-In . SVG Version: 6.00 Build 0)  -->
<svg version="1.1" id="Layer_1" xmlns="http://www.w3.org/2000/svg" xmlns:xlink="http://www.w3.org/1999/xlink" x="0px" y="0px"
	 viewBox="0 0 508 508" style="enable-background:new 0 0 508 508;" xml:space="preserve">
<circle style="fill:#324A5E;" cx="254" cy="254" r="254"/>
<circle style="fill:#FFD05B;" cx="273.2" cy="188" r="97.6"/>
<circle style="fill:#F9B54C;" cx="273.2" cy="188" r="75.2"/>
<path style="fill:#FFD05B;" d="M301.6,208.4c0-15.6-12.8-28.4-28.4-28.4c-6.8,0-12-5.6-12-12c0-6.8,5.6-12,12-12
	c3.2,0,6.4,1.2,8.8,4c3.2,3.2,8,3.6,11.6,0.4c3.2-3.2,3.6-8,0.4-11.6c-3.6-3.6-7.6-6.4-12.4-7.6v-5.6c0-4.4-3.6-8-8-8s-8,3.6-8,8
	v5.6c-11.6,3.6-20.4,14.4-20.4,27.2c0,15.6,12.8,28.4,28.4,28.4c6.8,0,12,5.6,12,12c0,6.8-5.6,12-12,12c-3.2,0-6.4-1.2-8.8-4
	c-3.2-3.2-8-3.6-11.6-0.4c-3.2,3.2-3.6,8-0.4,11.6c3.6,3.6,7.6,6.4,12.4,7.6v5.6c0,4.4,3.6,8,8,8s8-3.6,8-8v-5.6
	C293.2,232,301.6,221.2,301.6,208.4z"/>
<path style="fill:#E6E9EE;" d="M227.6,374.8c-3.6-0.4-7.2-2-9.2-4.8c-11.6-14.4,35.6-15.2,61.2-14.8c13.6,0,26.8-3.2,38.4-10
	c4.4-2.4,6.8-4.8,8-6.8C332,380,248.4,376.4,227.6,374.8z"/>
<path style="fill:#FFFFFF;" d="M419.6,292c-4.4-3.6-10.8-4.4-16-1.6L325.2,332c-12.4-10-73.6-8.8-73.6-8.8
	C200,276.4,134,310.4,134,310.4l-51.6-24.8l-21.2,93.2l180,36.4c28.4,5.6,57.6-0.8,80.4-18.4c34.4-26.8,77.2-64.4,97.6-82.8
	C426.4,308,426.4,297.6,419.6,292z M227.6,374.8c-3.6-0.4-7.2-1.6-9.2-4.4c-11.6-14.4,35.6-15.2,61.2-14.8
	c13.6,0.4,26.8-3.2,38.4-10c4.4-2.4,6.8-4.8,8-6.8C332,380,248.4,376.4,227.6,374.8z"/>
<path style="fill:#CED5E0;" d="M302.4,330.8c0,0-4.4,8,0.8,16.8C342,332.8,302.4,330.8,302.4,330.8z"/>
<g>
</g>
<g>
</g>
<g>
</g>
<g>
</g>
<g>
</g>
<g>
</g>
<g>
</g>
<g>
</g>
<g>
</g>
<g>
</g>
<g>
</g>
<g>
</g>
<g>
</g>
<g>
</g>
<g>
</g>
</svg>
