<?xml version="1.0" encoding="iso-8859-1"?>
<!-- Generator: Adobe Illustrator 19.0.0, SVG Export Plug-In . SVG Version: 6.00 Build 0)  -->
<svg version="1.1" id="Layer_1" xmlns="http://www.w3.org/2000/svg" xmlns:xlink="http://www.w3.org/1999/xlink" x="0px" y="0px"
	 viewBox="0 0 508 508" style="enable-background:new 0 0 508 508;" xml:space="preserve">
<circle style="fill:#FD8469;" cx="254" cy="254" r="254"/>
<circle style="fill:#FFFFFF;" cx="254" cy="254" r="112.8"/>
<path style="fill:#324A5E;" d="M103.6,254c0-83.2,67.2-150.4,150.4-150.4c41.6,0,79.2,16.8,106.4,44l27.2-27.2
	c-34-34-81.6-55.2-133.6-55.2C149.6,65.2,65.2,150,65.2,254H42l42.4,42.4l42.4-42.4H103.6z"/>
<path style="fill:#FFD05B;" d="M423.6,211.6L381.2,254h23.2c0,83.2-67.2,150.4-150.4,150.4c-41.6,0-79.2-16.8-106.4-44l-27.2,27.2
	c34,34,81.6,55.2,133.6,55.2c104.4,0,188.8-84.8,188.8-188.8H466L423.6,211.6z"/>
<path style="fill:#54C0EB;" d="M290.8,280.4c0-20.4-16.4-36.8-36.8-36.8c-8.8,0-15.6-7.2-15.6-15.6s7.2-15.6,15.6-15.6
	c4.4,0,8.4,1.6,11.6,4.8c4,4.4,10.8,4.4,14.8,0.4c4.4-4,4.4-10.8,0.4-14.8c-4.4-4.8-10-8-16.4-10v-7.2c0-5.6-4.8-10.4-10.4-10.4
	s-10.4,4.8-10.4,10.4v7.2c-15.2,4.4-26.4,18.4-26.4,35.2c0,20.4,16.4,36.8,36.8,36.8c8.8,0,15.6,7.2,15.6,15.6
	c0,8.8-7.2,15.6-15.6,15.6c-4.4,0-8.4-1.6-11.6-4.8c-4-4.4-10.8-4.4-14.8-0.4c-4.4,4-4.4,10.8-0.4,14.8c4.4,4.8,10,8,16.4,10v7.2
	c0,5.6,4.8,10.4,10.4,10.4s10.4-4.8,10.4-10.4v-7.2C279.6,310.8,290.8,296.8,290.8,280.4z"/>
<g>
</g>
<g>
</g>
<g>
</g>
<g>
</g>
<g>
</g>
<g>
</g>
<g>
</g>
<g>
</g>
<g>
</g>
<g>
</g>
<g>
</g>
<g>
</g>
<g>
</g>
<g>
</g>
<g>
</g>
</svg>
